<svg t="1618054217374" class="icon" viewBox="0 0 1024 1024" version="1.1" xmlns="http://www.w3.org/2000/svg" p-id="1421" width="200" height="200"><path d="M729.551698 549.772075c133.255245 75.602113 217.165283 215.020679 217.165283 368.794567a420.226415 420.226415 0 0 1-5.660981 68.936452 28.981132 28.981132 0 0 1-57.189434-9.505811 362.264151 362.264151 0 0 0 4.888151-59.430641c0-132.579019-72.414189-252.908679-187.797736-318.386717a28.981132 28.981132 0 0 1 28.594717-50.42717zM512 9.660377c154.10234 0 279.436075 120.870642 279.436075 270.490566s-125.333736 270.490566-279.436075 270.490566c-208.219774 0-376.754717 164.883321-376.754717 367.925133 0 19.900377 1.622943 39.588226 4.810868 58.928301a28.981132 28.981132 0 0 1-57.189434 9.428529A420.265057 420.265057 0 0 1 77.283019 918.566642c0-187.720453 123.904-346.923472 295.800755-403.68785-83.890717-46.58234-140.519849-134.163321-140.519849-234.727849 0-149.619925 125.333736-270.490566 279.436075-270.490566z m0 57.962265c-122.551547 0-221.473811 95.386566-221.473811 212.528301s98.922264 212.528302 221.473811 212.528302c122.551547 0 221.473811-95.386566 221.473811-212.528302S634.551547 67.622642 512 67.622642z" p-id="1422"></path></svg>
